<svg xmlns="http://www.w3.org/2000/svg" xmlns:xlink="http://www.w3.org/1999/xlink" width="140" zoomAndPan="magnify" viewBox="0 0 104.88 30.000001" height="40" preserveAspectRatio="xMidYMid meet" version="1.0"><defs><g/><clipPath id="c66ac73836"><path d="M 19 3 L 31 3 L 31 14 L 19 14 Z M 19 3 " clip-rule="nonzero"/></clipPath><clipPath id="bcfbd785f3"><path d="M 7.738281 -5.019531 L 39.792969 4.320312 L 31.0625 34.28125 L -0.992188 24.945312 Z M 7.738281 -5.019531 " clip-rule="nonzero"/></clipPath><clipPath id="62916f43b4"><path d="M 7.738281 -5.019531 L 39.792969 4.320312 L 31.0625 34.28125 L -0.992188 24.945312 Z M 7.738281 -5.019531 " clip-rule="nonzero"/></clipPath><clipPath id="830ca87cb9"><path d="M 7.738281 -5.019531 L 111.566406 25.230469 L 102.835938 55.195312 L -0.992188 24.945312 Z M 7.738281 -5.019531 " clip-rule="nonzero"/></clipPath><clipPath id="7917031eb7"><path d="M 13 0 L 23 0 L 23 14 L 13 14 Z M 13 0 " clip-rule="nonzero"/></clipPath><clipPath id="460abe0fed"><path d="M 7.738281 -5.019531 L 39.792969 4.320312 L 31.0625 34.28125 L -0.992188 24.945312 Z M 7.738281 -5.019531 " clip-rule="nonzero"/></clipPath><clipPath id="eb51d18469"><path d="M 7.738281 -5.019531 L 39.792969 4.320312 L 31.0625 34.28125 L -0.992188 24.945312 Z M 7.738281 -5.019531 " clip-rule="nonzero"/></clipPath><clipPath id="1201414e99"><path d="M 7.738281 -5.019531 L 111.566406 25.230469 L 102.835938 55.195312 L -0.992188 24.945312 Z M 7.738281 -5.019531 " clip-rule="nonzero"/></clipPath><clipPath id="1fcc598f34"><path d="M 17 15 L 26 15 L 26 29.03125 L 17 29.03125 Z M 17 15 " clip-rule="nonzero"/></clipPath><clipPath id="ba66b85d11"><path d="M 7.738281 -5.019531 L 39.792969 4.320312 L 31.0625 34.28125 L -0.992188 24.945312 Z M 7.738281 -5.019531 " clip-rule="nonzero"/></clipPath><clipPath id="37324897b5"><path d="M 7.738281 -5.019531 L 39.792969 4.320312 L 31.0625 34.28125 L -0.992188 24.945312 Z M 7.738281 -5.019531 " clip-rule="nonzero"/></clipPath><clipPath id="3e64baba72"><path d="M 7.738281 -5.019531 L 111.566406 25.230469 L 102.835938 55.195312 L -0.992188 24.945312 Z M 7.738281 -5.019531 " clip-rule="nonzero"/></clipPath><clipPath id="db1568c562"><path d="M 19 13 L 34 13 L 34 23 L 19 23 Z M 19 13 " clip-rule="nonzero"/></clipPath><clipPath id="7b7ee91a9b"><path d="M 7.738281 -5.019531 L 39.792969 4.320312 L 31.0625 34.28125 L -0.992188 24.945312 Z M 7.738281 -5.019531 " clip-rule="nonzero"/></clipPath><clipPath id="bb1ad5c2f8"><path d="M 7.738281 -5.019531 L 39.792969 4.320312 L 31.0625 34.28125 L -0.992188 24.945312 Z M 7.738281 -5.019531 " clip-rule="nonzero"/></clipPath><clipPath id="3b421b75a3"><path d="M 7.738281 -5.019531 L 111.566406 25.230469 L 102.835938 55.195312 L -0.992188 24.945312 Z M 7.738281 -5.019531 " clip-rule="nonzero"/></clipPath><clipPath id="162efec416"><path d="M 7 15 L 18 15 L 18 26 L 7 26 Z M 7 15 " clip-rule="nonzero"/></clipPath><clipPath id="8fc99c1051"><path d="M 7.738281 -5.019531 L 39.792969 4.320312 L 31.0625 34.28125 L -0.992188 24.945312 Z M 7.738281 -5.019531 " clip-rule="nonzero"/></clipPath><clipPath id="2dccfab465"><path d="M 7.738281 -5.019531 L 39.792969 4.320312 L 31.0625 34.28125 L -0.992188 24.945312 Z M 7.738281 -5.019531 " clip-rule="nonzero"/></clipPath><clipPath id="ef6ee3eb6d"><path d="M 7.738281 -5.019531 L 111.566406 25.230469 L 102.835938 55.195312 L -0.992188 24.945312 Z M 7.738281 -5.019531 " clip-rule="nonzero"/></clipPath><clipPath id="b1ca1fba34"><path d="M 4 8 L 18 8 L 18 18 L 4 18 Z M 4 8 " clip-rule="nonzero"/></clipPath><clipPath id="a2bacbdb8d"><path d="M 7.738281 -5.019531 L 39.792969 4.320312 L 31.0625 34.28125 L -0.992188 24.945312 Z M 7.738281 -5.019531 " clip-rule="nonzero"/></clipPath><clipPath id="cdbed3789c"><path d="M 7.738281 -5.019531 L 39.792969 4.320312 L 31.0625 34.28125 L -0.992188 24.945312 Z M 7.738281 -5.019531 " clip-rule="nonzero"/></clipPath><clipPath id="838561b5a7"><path d="M 7.738281 -5.019531 L 111.566406 25.230469 L 102.835938 55.195312 L -0.992188 24.945312 Z M 7.738281 -5.019531 " clip-rule="nonzero"/></clipPath></defs><g clip-path="url(#c66ac73836)"><g clip-path="url(#bcfbd785f3)"><g clip-path="url(#62916f43b4)"><g clip-path="url(#830ca87cb9)"><path fill="#0ea5ea" d="M 29.988281 5.585938 L 28.230469 11.609375 L 19.613281 13.628906 L 22.050781 5.261719 L 28.234375 3.859375 C 28.472656 3.800781 28.726562 3.808594 28.964844 3.875 C 29.207031 3.941406 29.425781 4.070312 29.601562 4.242188 C 29.777344 4.417969 29.90625 4.632812 29.972656 4.867188 C 30.039062 5.101562 30.046875 5.351562 29.988281 5.585938 Z M 29.988281 5.585938 " fill-opacity="1" fill-rule="nonzero"/></g></g></g></g><g clip-path="url(#7917031eb7)"><g clip-path="url(#460abe0fed)"><g clip-path="url(#eb51d18469)"><g clip-path="url(#1201414e99)"><path fill="#0ea5ea" d="M 15.179688 1.273438 L 13.425781 7.296875 L 19.613281 13.628906 L 22.050781 5.261719 L 17.589844 0.757812 C 17.414062 0.582031 17.199219 0.449219 16.960938 0.378906 C 16.722656 0.304688 16.46875 0.292969 16.226562 0.347656 C 15.984375 0.398438 15.761719 0.511719 15.578125 0.671875 C 15.394531 0.835938 15.257812 1.042969 15.179688 1.273438 Z M 15.179688 1.273438 " fill-opacity="0.3" fill-rule="nonzero"/></g></g></g></g><g clip-path="url(#1fcc598f34)"><g clip-path="url(#ba66b85d11)"><g clip-path="url(#37324897b5)"><g clip-path="url(#3e64baba72)"><path fill="#0ea5ea" d="M 21.613281 28.796875 L 17.308594 24.300781 L 19.886719 15.761719 L 25.871094 22.007812 L 23.980469 28.109375 C 23.910156 28.347656 23.777344 28.566406 23.601562 28.746094 C 23.421875 28.921875 23.203125 29.050781 22.964844 29.121094 C 22.726562 29.1875 22.480469 29.195312 22.242188 29.136719 C 22.003906 29.082031 21.789062 28.964844 21.613281 28.796875 Z M 21.613281 28.796875 " fill-opacity="1" fill-rule="nonzero"/></g></g></g></g><g clip-path="url(#db1568c562)"><g clip-path="url(#7b7ee91a9b)"><g clip-path="url(#bb1ad5c2f8)"><g clip-path="url(#3b421b75a3)"><path fill="#0ea5ea" d="M 32.746094 17.953125 L 28.441406 13.457031 L 19.886719 15.761719 L 25.871094 22.007812 L 31.984375 20.316406 C 32.222656 20.25 32.441406 20.128906 32.625 19.953125 C 32.804688 19.78125 32.941406 19.566406 33.019531 19.328125 C 33.09375 19.089844 33.109375 18.839844 33.0625 18.597656 C 33.015625 18.359375 32.90625 18.136719 32.746094 17.953125 Z M 32.746094 17.953125 " fill-opacity="0.3" fill-rule="nonzero"/></g></g></g></g><g clip-path="url(#162efec416)"><g clip-path="url(#8fc99c1051)"><g clip-path="url(#2dccfab465)"><g clip-path="url(#ef6ee3eb6d)"><path fill="#0ea5ea" d="M 9.359375 25.226562 L 15.40625 23.746094 L 17.816406 15.15625 L 9.414062 17.214844 L 7.730469 23.375 C 7.664062 23.617188 7.65625 23.871094 7.710938 24.117188 C 7.765625 24.359375 7.882812 24.585938 8.046875 24.773438 C 8.210938 24.957031 8.417969 25.097656 8.644531 25.175781 C 8.875 25.257812 9.121094 25.273438 9.359375 25.226562 Z M 9.359375 25.226562 " fill-opacity="0.3" fill-rule="nonzero"/></g></g></g></g><g clip-path="url(#b1ca1fba34)"><g clip-path="url(#a2bacbdb8d)"><g clip-path="url(#cdbed3789c)"><g clip-path="url(#838561b5a7)"><path fill="#0ea5ea" d="M 5.792969 10.101562 L 11.839844 8.621094 L 17.816406 15.15625 L 9.414062 17.214844 L 5.167969 12.503906 C 5 12.320312 4.882812 12.097656 4.820312 11.851562 C 4.761719 11.609375 4.761719 11.355469 4.824219 11.113281 C 4.886719 10.871094 5.011719 10.652344 5.179688 10.476562 C 5.351562 10.296875 5.5625 10.167969 5.792969 10.101562 Z M 5.792969 10.101562 " fill-opacity="1" fill-rule="nonzero"/></g></g></g></g><g fill="#ffffff" fill-opacity="1"><g transform="translate(34.944143, 10.887099)"><g><path d="M 11.21875 2.125 C 10.375 2.550781 9.519531 2.617188 8.65625 2.328125 C 7.726562 2.035156 6.929688 1.410156 6.265625 0.453125 C 5.910156 -0.0546875 5.609375 -0.648438 5.359375 -1.328125 L 4.984375 -2.3125 L 2.25 -2.3125 L 1.625 -0.84375 C 1.59375 -0.75 1.578125 -0.671875 1.578125 -0.609375 C 1.578125 -0.546875 1.585938 -0.476562 1.609375 -0.40625 C 1.640625 -0.332031 1.695312 -0.265625 1.78125 -0.203125 C 1.875 -0.140625 1.972656 -0.109375 2.078125 -0.109375 L 2.171875 -0.109375 L 2.171875 0 L -0.3125 0 L -0.3125 -0.109375 L -0.203125 -0.109375 C -0.0234375 -0.109375 0.144531 -0.160156 0.3125 -0.265625 C 0.488281 -0.367188 0.640625 -0.53125 0.765625 -0.75 L 3.34375 -6.65625 C 3.039062 -7.332031 2.722656 -7.800781 2.390625 -8.0625 C 2.097656 -8.269531 1.820312 -8.375 1.5625 -8.375 C 1.300781 -8.375 1.0625 -8.335938 0.84375 -8.265625 L 0.8125 -8.375 C 1.375 -8.664062 1.910156 -8.8125 2.421875 -8.8125 C 3.054688 -8.8125 3.625 -8.5625 4.125 -8.0625 C 4.625 -7.582031 5.0625 -6.878906 5.4375 -5.953125 L 7.125 -1.796875 C 7.757812 -0.222656 8.410156 0.851562 9.078125 1.4375 C 9.347656 1.675781 9.625 1.84375 9.90625 1.9375 C 10.195312 2.03125 10.4375 2.078125 10.625 2.078125 C 10.820312 2.078125 11.015625 2.054688 11.203125 2.015625 Z M 2.4375 -2.8125 L 4.8125 -2.8125 L 4 -4.953125 C 3.957031 -5.066406 3.898438 -5.21875 3.828125 -5.40625 C 3.765625 -5.59375 3.722656 -5.722656 3.703125 -5.796875 Z M 2.4375 -2.8125 "/></g></g></g><g fill="#ffffff" fill-opacity="1"><g transform="translate(43.12321, 10.887099)"><g><path d="M 4.171875 0 L 0.484375 0 L 0.484375 -0.109375 L 0.640625 -0.109375 C 0.835938 -0.109375 1.007812 -0.175781 1.15625 -0.3125 C 1.300781 -0.457031 1.375 -0.628906 1.375 -0.828125 L 1.375 -7.296875 C 1.375 -7.492188 1.300781 -7.660156 1.15625 -7.796875 C 1.007812 -7.941406 0.835938 -8.015625 0.640625 -8.015625 L 0.484375 -8.015625 L 0.484375 -8.125 L 3.859375 -8.125 C 4.753906 -8.125 5.46875 -7.960938 6 -7.640625 C 6.53125 -7.316406 6.796875 -6.816406 6.796875 -6.140625 C 6.796875 -5.796875 6.722656 -5.5 6.578125 -5.25 C 6.328125 -4.769531 5.925781 -4.492188 5.375 -4.421875 C 5.96875 -4.367188 6.457031 -4.144531 6.84375 -3.75 C 7.238281 -3.363281 7.4375 -2.867188 7.4375 -2.265625 C 7.4375 -1.535156 7.140625 -0.972656 6.546875 -0.578125 C 5.960938 -0.191406 5.171875 0 4.171875 0 Z M 4.953125 -5.984375 C 4.941406 -7.078125 4.441406 -7.625 3.453125 -7.625 L 3.125 -7.625 L 3.125 -0.53125 L 3.65625 -0.53125 C 3.664062 -0.53125 3.675781 -0.53125 3.6875 -0.53125 C 4.21875 -0.53125 4.640625 -0.6875 4.953125 -1 C 5.273438 -1.3125 5.4375 -1.78125 5.4375 -2.40625 C 5.4375 -2.84375 5.347656 -3.207031 5.171875 -3.5 C 4.835938 -4.03125 4.285156 -4.296875 3.515625 -4.296875 L 3.515625 -4.40625 C 3.921875 -4.40625 4.257812 -4.53125 4.53125 -4.78125 C 4.800781 -5.039062 4.941406 -5.441406 4.953125 -5.984375 Z M 4.953125 -5.984375 "/></g></g></g><g fill="#ffffff" fill-opacity="1"><g transform="translate(50.931022, 10.887099)"><g><path d="M 4.703125 -8.125 C 6.066406 -8.125 7.144531 -7.757812 7.9375 -7.03125 C 8.738281 -6.300781 9.140625 -5.3125 9.140625 -4.0625 C 9.140625 -2.8125 8.738281 -1.820312 7.9375 -1.09375 C 7.144531 -0.363281 6.066406 0 4.703125 0 L 0.484375 0 L 0.484375 -0.109375 L 0.640625 -0.109375 C 0.835938 -0.109375 1.007812 -0.179688 1.15625 -0.328125 C 1.300781 -0.472656 1.375 -0.644531 1.375 -0.84375 L 1.375 -7.34375 C 1.351562 -7.53125 1.269531 -7.6875 1.125 -7.8125 C 0.988281 -7.945312 0.828125 -8.015625 0.640625 -8.015625 L 0.484375 -8.015625 L 0.484375 -8.125 Z M 4.546875 -0.484375 C 5.109375 -0.484375 5.59375 -0.628906 6 -0.921875 C 6.40625 -1.210938 6.710938 -1.625 6.921875 -2.15625 C 7.140625 -2.695312 7.25 -3.332031 7.25 -4.0625 C 7.25 -5.164062 7.003906 -6.035156 6.515625 -6.671875 C 6.035156 -7.316406 5.378906 -7.640625 4.546875 -7.640625 L 3.125 -7.640625 L 3.125 -0.484375 Z M 4.546875 -0.484375 "/></g></g></g><g fill="#ffffff" fill-opacity="1"><g transform="translate(60.537071, 10.887099)"><g><path d="M 9.171875 -8.015625 L 8.96875 -8.015625 C 8.8125 -8.015625 8.671875 -7.960938 8.546875 -7.859375 C 8.429688 -7.753906 8.375 -7.625 8.375 -7.46875 L 8.375 -2.9375 C 8.375 -1.988281 8.070312 -1.234375 7.46875 -0.671875 C 6.875 -0.117188 6.0625 0.15625 5.03125 0.15625 C 3.800781 0.15625 2.863281 -0.113281 2.21875 -0.65625 C 1.570312 -1.195312 1.25 -1.953125 1.25 -2.921875 L 1.25 -7.4375 C 1.25 -7.601562 1.1875 -7.738281 1.0625 -7.84375 C 0.9375 -7.957031 0.789062 -8.015625 0.625 -8.015625 L 0.4375 -8.015625 L 0.4375 -8.125 L 3.78125 -8.125 L 3.78125 -8.015625 L 3.59375 -8.015625 C 3.425781 -8.015625 3.285156 -7.960938 3.171875 -7.859375 C 3.054688 -7.753906 2.992188 -7.617188 2.984375 -7.453125 L 2.984375 -3.015625 C 2.984375 -2.191406 3.179688 -1.539062 3.578125 -1.0625 C 3.984375 -0.582031 4.535156 -0.34375 5.234375 -0.34375 C 5.941406 -0.34375 6.5 -0.566406 6.90625 -1.015625 C 7.320312 -1.472656 7.535156 -2.09375 7.546875 -2.875 L 7.546875 -7.453125 C 7.546875 -7.617188 7.484375 -7.753906 7.359375 -7.859375 C 7.242188 -7.960938 7.101562 -8.015625 6.9375 -8.015625 L 6.75 -8.015625 L 6.75 -8.125 L 9.171875 -8.125 Z M 9.171875 -8.015625 "/></g></g></g><g fill="#ffffff" fill-opacity="1"><g transform="translate(70.061907, 10.887099)"><g><path d="M 0.640625 -0.109375 C 0.835938 -0.109375 1.007812 -0.179688 1.15625 -0.328125 C 1.300781 -0.472656 1.375 -0.644531 1.375 -0.84375 L 1.375 -7.28125 C 1.375 -7.476562 1.300781 -7.648438 1.15625 -7.796875 C 1.007812 -7.941406 0.835938 -8.015625 0.640625 -8.015625 L 0.484375 -8.015625 L 0.484375 -8.125 L 4.015625 -8.125 L 4 -8.015625 L 3.859375 -8.015625 C 3.660156 -8.015625 3.488281 -7.941406 3.34375 -7.796875 C 3.195312 -7.648438 3.125 -7.476562 3.125 -7.28125 L 3.125 -0.5 L 4.640625 -0.5 C 5.203125 -0.5 5.675781 -0.660156 6.0625 -0.984375 C 6.445312 -1.304688 6.734375 -1.769531 6.921875 -2.375 L 7.03125 -2.375 L 6.5 0 L 0.484375 0 L 0.484375 -0.109375 Z M 0.640625 -0.109375 "/></g></g></g><g fill="#ffffff" fill-opacity="1"><g transform="translate(77.208436, 10.887099)"><g><path d="M 0.640625 -0.109375 C 0.835938 -0.109375 1.007812 -0.179688 1.15625 -0.328125 C 1.300781 -0.472656 1.375 -0.644531 1.375 -0.84375 L 1.375 -7.28125 C 1.375 -7.476562 1.300781 -7.648438 1.15625 -7.796875 C 1.007812 -7.941406 0.835938 -8.015625 0.640625 -8.015625 L 0.484375 -8.015625 L 0.484375 -8.125 L 4.015625 -8.125 L 4 -8.015625 L 3.859375 -8.015625 C 3.660156 -8.015625 3.488281 -7.941406 3.34375 -7.796875 C 3.195312 -7.648438 3.125 -7.476562 3.125 -7.28125 L 3.125 -0.5 L 4.640625 -0.5 C 5.203125 -0.5 5.675781 -0.660156 6.0625 -0.984375 C 6.445312 -1.304688 6.734375 -1.769531 6.921875 -2.375 L 7.03125 -2.375 L 6.5 0 L 0.484375 0 L 0.484375 -0.109375 Z M 0.640625 -0.109375 "/></g></g></g><g fill="#ffffff" fill-opacity="1"><g transform="translate(84.354965, 10.887099)"><g><path d="M 8.578125 -0.109375 L 8.671875 -0.109375 L 8.671875 0 L 4.96875 0 L 4.96875 -0.109375 L 5.078125 -0.109375 C 5.242188 -0.109375 5.367188 -0.160156 5.453125 -0.265625 C 5.535156 -0.367188 5.578125 -0.46875 5.578125 -0.5625 C 5.578125 -0.65625 5.554688 -0.75 5.515625 -0.84375 L 4.953125 -2.28125 L 2.234375 -2.28125 L 1.625 -0.84375 C 1.59375 -0.75 1.578125 -0.65625 1.578125 -0.5625 C 1.578125 -0.46875 1.613281 -0.367188 1.6875 -0.265625 C 1.769531 -0.160156 1.898438 -0.109375 2.078125 -0.109375 L 2.171875 -0.109375 L 2.171875 0 L -0.3125 0 L -0.3125 -0.109375 L -0.203125 -0.109375 C -0.0234375 -0.109375 0.148438 -0.160156 0.328125 -0.265625 C 0.503906 -0.378906 0.648438 -0.546875 0.765625 -0.765625 L 3.453125 -6.84375 C 3.816406 -7.601562 4.007812 -8.109375 4.03125 -8.359375 L 4.140625 -8.359375 L 7.578125 -0.796875 C 7.703125 -0.566406 7.851562 -0.394531 8.03125 -0.28125 C 8.207031 -0.164062 8.390625 -0.109375 8.578125 -0.109375 Z M 2.4375 -2.765625 L 4.75 -2.765625 L 3.625 -5.625 Z M 2.4375 -2.765625 "/></g></g></g><g fill="#ffffff" fill-opacity="1"><g transform="translate(92.661648, 10.887099)"><g><path d="M 6.140625 -0.109375 C 6.335938 -0.109375 6.492188 -0.160156 6.609375 -0.265625 C 6.785156 -0.441406 6.878906 -0.628906 6.890625 -0.828125 L 6.890625 -3.796875 L 3.125 -3.796875 L 3.125 -0.84375 C 3.125 -0.644531 3.195312 -0.472656 3.34375 -0.328125 C 3.488281 -0.179688 3.660156 -0.109375 3.859375 -0.109375 L 4 -0.109375 L 4.015625 0 L 0.484375 0 L 0.484375 -0.109375 L 0.640625 -0.109375 C 0.835938 -0.109375 1.007812 -0.179688 1.15625 -0.328125 C 1.300781 -0.472656 1.375 -0.644531 1.375 -0.84375 L 1.375 -7.296875 C 1.375 -7.492188 1.300781 -7.660156 1.15625 -7.796875 C 1.007812 -7.941406 0.835938 -8.015625 0.640625 -8.015625 L 0.484375 -8.015625 L 0.484375 -8.125 L 4.015625 -8.125 L 4 -8.015625 L 3.859375 -8.015625 C 3.660156 -8.015625 3.488281 -7.941406 3.34375 -7.796875 C 3.195312 -7.660156 3.125 -7.492188 3.125 -7.296875 L 3.125 -4.296875 L 6.890625 -4.296875 L 6.890625 -7.296875 C 6.878906 -7.492188 6.800781 -7.660156 6.65625 -7.796875 C 6.507812 -7.941406 6.335938 -8.015625 6.140625 -8.015625 L 5.984375 -8.015625 L 5.984375 -8.125 L 9.515625 -8.125 L 9.515625 -8.015625 L 9.375 -8.015625 C 9.164062 -8.015625 8.988281 -7.941406 8.84375 -7.796875 C 8.695312 -7.648438 8.625 -7.476562 8.625 -7.28125 L 8.625 -0.84375 C 8.625 -0.644531 8.695312 -0.472656 8.84375 -0.328125 C 8.988281 -0.179688 9.164062 -0.109375 9.375 -0.109375 L 9.515625 -0.109375 L 9.515625 0 L 5.984375 0 L 5.984375 -0.109375 Z M 6.140625 -0.109375 "/></g></g></g><g fill="#ffffff" fill-opacity="1"><g transform="translate(54.711028, 24.677421)"><g><path d="M 0.640625 -0.109375 C 0.835938 -0.109375 1.007812 -0.179688 1.15625 -0.328125 C 1.300781 -0.472656 1.375 -0.644531 1.375 -0.84375 L 1.375 -7.3125 C 1.351562 -7.582031 1.226562 -7.785156 1 -7.921875 C 0.882812 -7.984375 0.765625 -8.015625 0.640625 -8.015625 L 0.484375 -8.015625 L 0.484375 -8.125 L 3.75 -8.125 C 4.09375 -8.125 4.390625 -8.148438 4.640625 -8.203125 C 4.898438 -8.253906 5.066406 -8.296875 5.140625 -8.328125 L 5.140625 -6.296875 L 5.015625 -6.296875 L 5.015625 -6.4375 C 5.023438 -6.789062 4.925781 -7.070312 4.71875 -7.28125 C 4.507812 -7.5 4.234375 -7.613281 3.890625 -7.625 L 3.125 -7.625 L 3.125 -4.25 L 4.96875 -4.25 C 5.25 -4.257812 5.484375 -4.359375 5.671875 -4.546875 C 5.859375 -4.734375 5.953125 -4.96875 5.953125 -5.25 L 5.953125 -5.359375 L 6.0625 -5.359375 L 6.0625 -2.671875 L 5.953125 -2.671875 L 5.953125 -2.765625 C 5.953125 -3.046875 5.859375 -3.28125 5.671875 -3.46875 C 5.484375 -3.65625 5.253906 -3.753906 4.984375 -3.765625 L 3.125 -3.765625 L 3.125 -0.5 L 5.390625 -0.5 C 5.953125 -0.5 6.425781 -0.660156 6.8125 -0.984375 C 7.195312 -1.304688 7.476562 -1.769531 7.65625 -2.375 L 7.78125 -2.375 L 7.234375 0 L 0.484375 0 L 0.484375 -0.109375 Z M 0.640625 -0.109375 "/></g></g></g><g fill="#ffffff" fill-opacity="1"><g transform="translate(62.484032, 24.677421)"><g><path d="M 3.90625 -8.015625 C 3.695312 -8.015625 3.519531 -7.941406 3.375 -7.796875 C 3.238281 -7.648438 3.164062 -7.476562 3.15625 -7.28125 L 3.15625 -0.34375 C 3.15625 0.195312 3.007812 0.6875 2.71875 1.125 C 2.425781 1.5625 2.066406 1.867188 1.640625 2.046875 C 1.210938 2.234375 0.785156 2.328125 0.359375 2.328125 C 0.253906 2.328125 0.15625 2.328125 0.0625 2.328125 L 0.0625 2.21875 C 0.519531 2.019531 0.859375 1.679688 1.078125 1.203125 C 1.304688 0.734375 1.421875 0.203125 1.421875 -0.390625 L 1.421875 -7.28125 C 1.410156 -7.5625 1.285156 -7.773438 1.046875 -7.921875 C 0.929688 -7.984375 0.804688 -8.015625 0.671875 -8.015625 L 0.515625 -8.015625 L 0.515625 -8.125 L 4.046875 -8.125 L 4.046875 -8.015625 Z M 3.90625 -8.015625 "/></g></g></g><g fill="#ffffff" fill-opacity="1"><g transform="translate(66.93901, 24.677421)"><g><path d="M 8.578125 -0.109375 L 8.671875 -0.109375 L 8.671875 0 L 4.96875 0 L 4.96875 -0.109375 L 5.078125 -0.109375 C 5.242188 -0.109375 5.367188 -0.160156 5.453125 -0.265625 C 5.535156 -0.367188 5.578125 -0.46875 5.578125 -0.5625 C 5.578125 -0.65625 5.554688 -0.75 5.515625 -0.84375 L 4.953125 -2.28125 L 2.234375 -2.28125 L 1.625 -0.84375 C 1.59375 -0.75 1.578125 -0.65625 1.578125 -0.5625 C 1.578125 -0.46875 1.613281 -0.367188 1.6875 -0.265625 C 1.769531 -0.160156 1.898438 -0.109375 2.078125 -0.109375 L 2.171875 -0.109375 L 2.171875 0 L -0.3125 0 L -0.3125 -0.109375 L -0.203125 -0.109375 C -0.0234375 -0.109375 0.148438 -0.160156 0.328125 -0.265625 C 0.503906 -0.378906 0.648438 -0.546875 0.765625 -0.765625 L 3.453125 -6.84375 C 3.816406 -7.601562 4.007812 -8.109375 4.03125 -8.359375 L 4.140625 -8.359375 L 7.578125 -0.796875 C 7.703125 -0.566406 7.851562 -0.394531 8.03125 -0.28125 C 8.207031 -0.164062 8.390625 -0.109375 8.578125 -0.109375 Z M 2.4375 -2.765625 L 4.75 -2.765625 L 3.625 -5.625 Z M 2.4375 -2.765625 "/></g></g></g><g fill="#ffffff" fill-opacity="1"><g transform="translate(75.245693, 24.677421)"><g><path d="M 0.6875 -8.34375 C 0.800781 -8.300781 1.003906 -8.253906 1.296875 -8.203125 C 1.585938 -8.160156 1.789062 -8.140625 1.90625 -8.140625 C 2.03125 -8.140625 2.09375 -8.140625 2.09375 -8.140625 L 5.796875 -8.140625 C 6.171875 -8.140625 6.457031 -8.160156 6.65625 -8.203125 C 6.863281 -8.242188 6.984375 -8.269531 7.015625 -8.28125 L 7.015625 -8.1875 L 2.71875 -0.484375 L 5.15625 -0.484375 C 5.644531 -0.484375 6.070312 -0.648438 6.4375 -0.984375 C 6.8125 -1.316406 7.078125 -1.765625 7.234375 -2.328125 L 7.34375 -2.328125 L 6.9375 0 L 0.515625 0 L 0.515625 -0.109375 L 4.78125 -7.65625 L 1.96875 -7.65625 C 1.613281 -7.644531 1.328125 -7.53125 1.109375 -7.3125 C 0.898438 -7.101562 0.796875 -6.820312 0.796875 -6.46875 L 0.796875 -6.328125 L 0.6875 -6.328125 Z M 0.6875 -8.34375 "/></g></g></g></svg>